<svg xmlns="http://www.w3.org/2000/svg" version="1.1" xmlns:xlink="http://www.w3.org/1999/xlink" xmlns:svgjs="http://svgjs.dev/svgjs" width="1920" height="1080" preserveAspectRatio="none" viewBox="0 0 1920 1080"><g mask="url(&quot;#SvgjsMask1020&quot;)" fill="none"><rect width="1920" height="1080" x="0" y="0" fill="rgba(0, 0, 0, 1)"></rect><path d="M895.8 618.1 a207.05 207.05 0 1 0 414.1 0 a207.05 207.05 0 1 0 -414.1 0z" fill="rgba(142, 28, 139, 0.2)" class="triangle-float1"></path><path d="M1814.658,856.934C1862.544,857.808,1915.397,851.758,1940.614,811.04C1966.802,768.754,1955.056,714.672,1929.001,672.303C1904.285,632.112,1861.812,604.577,1814.658,606.219C1769.942,607.776,1736.066,641.281,1713.327,679.815C1690.107,719.165,1673.736,766.923,1696.425,806.581C1719.224,846.432,1768.754,856.096,1814.658,856.934" fill="rgba(142, 28, 139, 0.2)" class="triangle-float1"></path><path d="M1014.509,998.36C1046.957,998.358,1084.575,998.139,1100.804,970.041C1117.035,941.939,1099.134,908.822,1082.219,881.126C1066.278,855.026,1045.065,830.033,1014.509,828.749C982.038,827.384,953.108,847.253,936.167,874.988C918.401,904.072,909.93,941.279,928.199,970.05C945.595,997.445,982.057,998.362,1014.509,998.36" fill="rgba(142, 28, 139, 0.2)" class="triangle-float1"></path><path d="M1295.767,1112.902C1342.073,1114.834,1377.393,1074.868,1398.396,1033.554C1417.318,996.334,1415.852,953.18,1395.503,916.72C1374.578,879.228,1338.682,851.024,1295.767,849.67C1250.56,848.244,1204.885,869.687,1184.503,910.063C1165.558,947.591,1186.756,988.709,1206.974,1025.567C1228.374,1064.579,1251.31,1111.047,1295.767,1112.902" fill="rgba(142, 28, 139, 0.2)" class="triangle-float3"></path><path d="M350.95 131.38 a348.27 348.27 0 1 0 696.54 0 a348.27 348.27 0 1 0 -696.54 0z" fill="rgba(142, 28, 139, 0.2)" class="triangle-float1"></path><path d="M1166.569,777.741C1207.855,776.891,1240.615,746.823,1260.792,710.793C1280.438,675.709,1288.066,632.659,1266.989,598.416C1246.697,565.448,1205.273,556.937,1166.569,557.709C1129.501,558.449,1092.935,571.121,1072.859,602.29C1051.043,636.162,1046.399,679.276,1065.38,714.815C1085.436,752.366,1124.006,778.617,1166.569,777.741" fill="rgba(142, 28, 139, 0.2)" class="triangle-float2"></path><path d="M577.97 499.75 a222.06 222.06 0 1 0 444.12 0 a222.06 222.06 0 1 0 -444.12 0z" fill="rgba(142, 28, 139, 0.2)" class="triangle-float1"></path></g><defs><mask id="SvgjsMask1020"><rect width="1920" height="1080" fill="#ffffff"></rect></mask><style>
                @keyframes float1 {
                    0%{transform: translate(0, 0)}
                    50%{transform: translate(-10px, 0)}
                    100%{transform: translate(0, 0)}
                }

                .triangle-float1 {
                    animation: float1 5s infinite;
                }

                @keyframes float2 {
                    0%{transform: translate(0, 0)}
                    50%{transform: translate(-5px, -5px)}
                    100%{transform: translate(0, 0)}
                }

                .triangle-float2 {
                    animation: float2 4s infinite;
                }

                @keyframes float3 {
                    0%{transform: translate(0, 0)}
                    50%{transform: translate(0, -10px)}
                    100%{transform: translate(0, 0)}
                }

                .triangle-float3 {
                    animation: float3 6s infinite;
                }
            </style></defs></svg>