<svg xmlns="http://www.w3.org/2000/svg" version="1.1" xmlns:xlink="http://www.w3.org/1999/xlink" xmlns:svgjs="http://svgjs.dev/svgjs" width="765" height="625" viewBox="0 0 300 300" style="background-color: rgb(0, 0, 0);" class="svg-animations "><svg viewBox="0 0 134 139" width="60" height="60" style="fill: rgb(255, 255, 255);" x="77.05500030517578" y="120"><svg width="134" height="134" viewBox="0 0 134 134" xmlns="http://www.w3.org/2000/svg">
	<path d="M67 0C29.9943 0 0 29.9943 0 67C0 104.006 29.9943 134 67 134C104.006 134 134 104.006 134 67C134 29.9943 104.006 0 67 0ZM76.208 89.4119C65.6101 94.9715 54.6896 98.955 43.7938 101.4C47.3058 90.5908 49.068 79.3601 49.068 68.1293C49.068 56.8985 47.3058 45.6677 43.7938 34.8589C54.6896 37.2912 65.6101 41.2871 76.208 46.8466C86.8059 52.3938 97.0935 59.5169 106.699 68.1293C97.0811 76.754 86.8059 83.8648 76.208 89.4119Z"/>
	</svg></svg><svg style="fill: rgb(255, 255, 255);" x="147.05500030517578" y="133.14999961853027"><path d="M4.59 26.42L-1.02 26.80Q0.48 22.27 1.84 17.92L1.84 17.92Q2.41 16.09 3.03 14.08Q3.64 12.07 4.25 10.10Q4.86 8.13 5.39 6.29Q5.92 4.46 6.32 2.89L6.32 2.89Q8.19 2.89 9.86 2.69Q11.53 2.49 13.46 2.32L13.46 2.32Q13.36 3.06 13.24 4.00Q13.12 4.93 12.97 5.95Q12.82 6.97 12.65 8.06Q12.48 9.15 12.24 10.85Q12.00 12.55 11.59 15.10L11.59 15.10L12.04 15.10Q13.02 12.52 13.67 10.80Q14.31 9.08 14.72 7.99Q15.13 6.91 15.56 5.87Q15.98 4.83 16.37 3.90Q16.76 2.96 17.10 2.25L17.10 2.25Q17.95 2.18 18.70 2.08Q19.45 1.98 20.20 1.86Q20.94 1.74 21.71 1.62Q22.47 1.50 23.39 1.33L23.39 1.33Q23.05 3.30 22.75 5.38Q22.44 7.45 22.20 9.51Q21.96 11.56 21.74 13.57Q21.52 15.58 21.35 17.38L21.35 17.38Q20.94 21.59 20.64 25.61L20.64 25.61L14.72 26.66Q14.72 26.49 14.77 25.74Q14.82 24.99 14.91 23.91Q14.99 22.82 15.15 21.49Q15.30 20.17 15.45 18.84Q15.61 17.51 15.78 16.27Q15.95 15.03 16.12 14.15L16.12 14.15L15.81 14.15Q15.33 15.58 14.76 17.16Q14.18 18.74 13.58 20.37Q12.99 22.00 12.41 23.57Q11.83 25.13 11.39 26.56L11.39 26.56Q10.20 26.59 9.35 26.64Q8.50 26.69 7.38 26.76L7.38 26.76L8.47 14.15L7.96 14.15Q7.89 14.59 7.62 15.63Q7.34 16.66 6.99 18.01Q6.63 19.35 6.22 20.80Q5.81 22.24 5.46 23.48Q5.10 24.72 4.86 25.52Q4.62 26.32 4.59 26.42L4.59 26.42ZM39.10 13.09Q39.10 14.28 38.71 15.59Q38.32 16.90 37.47 18.01Q36.62 19.11 35.31 19.83Q34 20.54 32.20 20.54L32.20 20.54Q30.67 20.54 29.89 19.54Q29.10 18.53 29.10 17.24L29.10 17.24Q29.10 16.02 29.48 14.54Q29.85 13.06 30.69 11.80Q31.52 10.54 32.83 9.68Q34.14 8.81 36.01 8.81L36.01 8.81Q36.92 8.81 37.54 9.22Q38.15 9.63 38.49 10.25Q38.83 10.88 38.96 11.65Q39.10 12.41 39.10 13.09L39.10 13.09ZM49.74 25.88L43.86 27.03Q44.88 22.44 45.80 18.06L45.80 18.06Q46.17 16.22 46.58 14.18Q46.99 12.14 47.36 10.17Q47.74 8.20 48.08 6.36Q48.42 4.53 48.65 3.00L48.65 3.00Q49.64 2.69 50.59 2.47Q51.54 2.25 52.55 2.08Q53.55 1.91 54.43 1.91L54.43 1.91Q55.96 1.91 57.00 2.42Q58.04 2.93 58.68 3.79Q59.33 4.66 59.60 5.82Q59.87 6.97 59.87 8.30L59.87 8.30Q59.87 10.20 59.18 11.97Q58.48 13.74 57.31 15.12Q56.13 16.49 54.62 17.31Q53.11 18.13 51.48 18.13L51.48 18.13L51.10 18.13Q50.83 19.28 50.59 20.64Q50.35 22.00 50.18 23.16L50.18 23.16Q49.95 24.52 49.74 25.88L49.74 25.88ZM53.35 6.02Q52.97 8.27 52.60 10.27Q52.22 12.28 51.78 14.56L51.78 14.56Q52.33 14.42 52.92 13.93Q53.52 13.43 54.03 12.63Q54.54 11.84 54.84 10.78Q55.15 9.73 55.15 8.57L55.15 8.57Q55.15 7.31 54.59 6.67Q54.03 6.02 53.35 6.02L53.35 6.02Z"/></svg><text fill="#ffffff" font-family="Verdana" font-size="16px" x="180" y="166.85000038146973"><tspan dy="0" x="180"></tspan></text></svg>