<svg xmlns="http://www.w3.org/2000/svg" version="1.1" xmlns:xlink="http://www.w3.org/1999/xlink" xmlns:svgjs="http://svgjs.dev/svgjs" width="1920" height="1080" preserveAspectRatio="none" viewBox="0 0 1920 1080"><g mask="url(&quot;#SvgjsMask1059&quot;)" fill="none"><rect width="1920" height="1080" x="0" y="0" fill="rgba(0, 0, 0, 1)"></rect><path d="M317.8 934.7 a260.65 260.65 0 1 0 521.3 0 a260.65 260.65 0 1 0 -521.3 0z" fill="rgba(214, 0, 199, 0.1)" class="triangle-float2"></path><path d="M414.06 634.39 a223.47 223.47 0 1 0 446.94 0 a223.47 223.47 0 1 0 -446.94 0z" fill="rgba(214, 0, 199, 0.1)" class="triangle-float2"></path><path d="M1773.316,397.004C1847.733,391.192,1914.054,356.93,1955.61,294.923C2003.391,223.627,2039.315,135.093,1999.962,58.821C1958.163,-22.192,1864.445,-60.795,1773.316,-58.394C1686.316,-56.102,1612.29,-3.738,1566.45,70.241C1517.591,149.094,1484.369,249.474,1533.988,327.851C1581.594,403.049,1684.585,403.934,1773.316,397.004" fill="rgba(214, 0, 199, 0.1)" class="triangle-float2"></path><path d="M552.569,503.843C590.982,501.587,614.584,466.573,634.004,433.354C653.69,399.68,673.605,361.409,656.268,326.467C637.459,288.559,594.829,267.016,552.569,269.224C513.497,271.266,485.498,302.436,466.086,336.406C446.866,370.039,434.915,409.585,452.692,444.002C471.781,480.96,511.044,506.282,552.569,503.843" fill="rgba(214, 0, 199, 0.1)" class="triangle-float1"></path><path d="M1942.015,469.634C2006.461,467.543,2073.284,448.076,2104.884,391.87C2135.999,336.527,2118.058,269.491,2085.023,215.272C2053.542,163.603,2002.426,127.92,1942.015,124.558C1874.85,120.82,1805.333,141.369,1768.497,197.656C1728.275,259.117,1720.242,341.145,1759.749,403.069C1797.035,461.512,1872.727,471.882,1942.015,469.634" fill="rgba(214, 0, 199, 0.1)" class="triangle-float2"></path><path d="M483.22 514.8 a331.01 331.01 0 1 0 662.02 0 a331.01 331.01 0 1 0 -662.02 0z" fill="rgba(214, 0, 199, 0.1)" class="triangle-float1"></path><path d="M421.891,529.471C463.684,528.012,503.346,511.677,526.422,476.802C552.297,437.695,563.559,388.683,542.897,346.588C519.82,299.573,474.263,263.484,421.891,263.839C370.01,264.191,328.152,302.455,303.694,348.21C280.728,391.175,277.291,443.764,303.901,484.572C328.536,522.352,376.816,531.045,421.891,529.471" fill="rgba(214, 0, 199, 0.1)" class="triangle-float1"></path></g><defs><mask id="SvgjsMask1059"><rect width="1920" height="1080" fill="#ffffff"></rect></mask><style>
                @keyframes float1 {
                    0%{transform: translate(0, 0)}
                    50%{transform: translate(-10px, 0)}
                    100%{transform: translate(0, 0)}
                }

                .triangle-float1 {
                    animation: float1 5s infinite;
                }

                @keyframes float2 {
                    0%{transform: translate(0, 0)}
                    50%{transform: translate(-5px, -5px)}
                    100%{transform: translate(0, 0)}
                }

                .triangle-float2 {
                    animation: float2 4s infinite;
                }

                @keyframes float3 {
                    0%{transform: translate(0, 0)}
                    50%{transform: translate(0, -10px)}
                    100%{transform: translate(0, 0)}
                }

                .triangle-float3 {
                    animation: float3 6s infinite;
                }
            </style></defs></svg>